<?xml version="1.0" encoding="UTF-8" standalone="no"?>
<svg
   xmlns:dc="http://purl.org/dc/elements/1.1/"
   xmlns:cc="http://creativecommons.org/ns#"
   xmlns:rdf="http://www.w3.org/1999/02/22-rdf-syntax-ns#"
   xmlns:svg="http://www.w3.org/2000/svg"
   xmlns="http://www.w3.org/2000/svg"
   xmlns:sodipodi="http://sodipodi.sourceforge.net/DTD/sodipodi-0.dtd"
   xmlns:inkscape="http://www.inkscape.org/namespaces/inkscape"
   inkscape:version="1.0 (4035a4fb49, 2020-05-01)"
   sodipodi:docname="fav.svg"
   id="svg16"
   overflow="visible"
   viewBox="0 0 73.959579 73.959579"
   preserveAspectRatio="xMidYMid meet"
   height="73.959579"
   width="73.959579"
   xlink="http://www.w3.org/1999/xlink"
   version="1.1">
  <metadata
     id="metadata20">
    <rdf:RDF>
      <cc:Work
         rdf:about="">
        <dc:format>image/svg+xml</dc:format>
        <dc:type
           rdf:resource="http://purl.org/dc/dcmitype/StillImage" />
        <dc:title></dc:title>
      </cc:Work>
    </rdf:RDF>
  </metadata>
  <sodipodi:namedview
     inkscape:current-layer="svg16"
     inkscape:window-maximized="1"
     inkscape:window-y="-8"
     inkscape:window-x="-8"
     inkscape:cy="21.265307"
     inkscape:cx="84.008353"
     inkscape:zoom="2.18999"
     fit-margin-bottom="0"
     fit-margin-right="0"
     fit-margin-left="0"
     fit-margin-top="0"
     showgrid="false"
     id="namedview18"
     inkscape:window-height="878"
     inkscape:window-width="1600"
     inkscape:pageshadow="2"
     inkscape:pageopacity="0"
     guidetolerance="10"
     gridtolerance="10"
     objecttolerance="10"
     borderopacity="1"
     bordercolor="#666666"
     pagecolor="#ffffff" />
  <defs
     id="SvgjsDefs428108" />
  <g
     opacity="1"
     transform="scale(0.53525975)"
     id="SvgjsG428109">
    <g
       fill="#fa4e33"
       non-strokable="false"
       light-content="false"
       transform="scale(1.3817512)"
       class="nTpPNCJhy"
       id="SvgjsG428110">
      <rect
         y="0"
         x="0"
         id="rect3"
         rx="10"
         height="100"
         width="100" />
    </g>
    <g
       fill="#ffffff"
       non-strokable="false"
       light-content="true"
       transform="matrix(0.93301656,0,0,0.93301656,22.743222,22.239276)"
       class="I8kErrMFBS"
       id="SvgjsG428111">
      <path
         style="stroke-width:1.19326"
         id="path6"
         d="m 102.29747,17.659581 -0.0143,-0.08949 a 3.66571,3.66571 0 0 0 -0.0871,-0.40571 l -0.0191,-0.06921 a 3.7301463,3.7301463 0 0 0 -0.16109,-0.439122 l -0.043,-0.08591 c -0.0334,-0.0716 -0.0668,-0.143192 -0.105,-0.213594 -0.0227,-0.03938 -0.0477,-0.07518 -0.0716,-0.11336 a 3.7933894,3.7933894 0 0 0 -0.3186,-0.453441 l -0.0215,-0.02745 a 3.8828842,3.8828842 0 0 0 -0.32934,-0.341274 1.1431478,1.1431478 0 0 0 -0.0704,-0.05847 3.4258637,3.4258637 0 0 0 -0.32219,-0.250586 l -0.0656,-0.04654 a 3.7671375,3.7671375 0 0 0 -0.40929,-0.23388 c -0.01,-0.0036 -0.0179,-0.01074 -0.0251,-0.01551 L 75.750907,3.0575978 51.272269,-8.6996424 a 3.6991214,3.6991214 0 0 0 -3.20153,0 L 23.588522,3.0587908 -0.89369605,14.816031 l -0.025059,0.01432 a 3.8972034,3.8972034 0 0 0 -0.41167645,0.235073 l -0.06563,0.04534 A 3.5404172,3.5404172 0 0 0 -1.718243,15.36135 l -0.070403,0.05966 a 3.6764494,3.6764494 0 0 0 -0.3281479,0.338887 l -0.027445,0.0358 c -0.085915,0.105008 -0.1670571,0.217174 -0.2434261,0.331728 -0.021479,0.04057 -0.045344,0.07876 -0.069209,0.118133 -0.022672,0.03699 -0.047731,0.07279 -0.069209,0.110974 -0.038184,0.06921 -0.069209,0.138418 -0.1014275,0.208821 -0.015513,0.03103 -0.032218,0.06086 -0.046537,0.09308 -0.063243,0.143192 -0.11694,0.28877 -0.1598976,0.435542 l -0.020285,0.07756 a 3.5559296,3.5559296 0 0 0 -0.085915,0.396164 l -0.015512,0.09546 a 3.5976939,3.5976939 0 0 0 -0.033412,0.478501 v 60.374435 c 0,1.343616 0.7290849,2.582225 1.9044509,3.233748 L 22.694766,94.936615 c 0.212402,0.1945 0.445088,0.36991 0.702833,0.5143 l 24.481025,13.573385 0.0048,0.002 a 3.3888725,3.3888725 0 0 0 0.474919,0.21718 4.9329574,4.9329574 0 0 0 0.449861,0.13961 c 0.106201,0.0251 0.213595,0.0453 0.323375,0.0621 l 0.108587,0.0167 a 3.6585504,3.6585504 0 0 0 0.859151,0 l 0.10978,-0.0167 a 3.5201317,3.5201317 0 0 0 0.774429,-0.20166 l 0.0704,-0.0251 c 0.137225,-0.0561 0.273257,-0.11933 0.403323,-0.19212 l 0.006,-0.002 24.482217,-13.574585 a 3.6871888,3.6871888 0 0 0 0.70164,-0.51429 L 100.42763,81.74865 a 3.6991214,3.6991214 0 0 0 1.90445,-3.233748 V 18.142853 c 0,-0.16109 -0.0143,-0.322181 -0.0346,-0.483272 z M 4.4044006,24.426587 21.491955,33.902304 V 55.693709 L 4.4044006,46.217992 Z M 25.18869,10.491638 41.622335,18.385086 25.18869,27.498051 8.7550446,18.385086 Z m 48.964435,0 L 90.58677,18.385086 74.153125,27.498051 57.71948,18.385086 Z M 49.670908,71.319514 32.811267,61.970283 49.670908,52.621052 66.529355,61.970283 Z M 70.45639,55.693709 53.368836,46.217992 V 24.426587 L 70.45639,33.902304 Z M 45.974173,46.216799 28.885425,55.692516 V 33.902304 l 17.088748,-9.475717 z m -17.087555,22.030058 17.088748,9.47691 v 21.790208 l -17.088748,-9.47452 z m 24.482218,9.47691 17.087554,-9.475717 v 21.791405 l -17.087554,9.47452 z M 77.84986,55.693709 V 33.902304 L 94.938611,24.426587 V 46.217992 Z M 49.670908,-1.2667949 65.614121,6.3903868 49.670908,14.047568 33.727694,6.3903868 Z M 4.4044006,54.671081 21.491955,64.146798 V 85.815297 L 4.4044006,76.33958 Z M 77.84986,85.81649 V 64.147991 l 17.088751,-9.475717 v 21.668499 z" />
    </g>
    <g
       fill="#262626"
       light-content="false"
       transform="translate(241.09615,95.146936)"
       class="text"
       id="SvgjsG428112" />
    <g
       fill="#262626"
       light-content="false"
       transform="translate(442.30816,94.276936)"
       class="text"
       id="SvgjsG428113" />
  </g>
</svg>
