<svg xmlns="http://www.w3.org/2000/svg" version="1.1" xlink="http://www.w3.org/1999/xlink" xmlns:svgjs="http://svgjs.com/svgjs" width="100%" height="100%" preserveAspectRatio="xMidYMid meet" viewBox="0 0 300.0013732910156 73.95957946777344" overflow="visible"><defs id="SvgjsDefs428108"></defs><g id="SvgjsG428109" transform="scale(0.5352597489428295)" opacity="1"><g id="SvgjsG428110" class="nTpPNCJhy" transform="translate(0, 0) scale(1.3817511942927152)" light-content="false" non-strokable="false" fill="#fa4e33"><rect width="100" height="100" rx="10"></rect></g><g id="SvgjsG428111" class="I8kErrMFBS" transform="translate(22.74322231272971, 22.239276149100785) scale(0.9330165588540686)" light-content="true" non-strokable="false" fill="#ffffff"><path d="M93.978 22.513l-.012-.075a3.072 3.072 0 0 0-.073-.34l-.016-.058a3.126 3.126 0 0 0-.135-.368l-.036-.072c-.028-.06-.056-.12-.088-.179-.019-.033-.04-.063-.06-.095a3.179 3.179 0 0 0-.267-.38l-.018-.023a3.254 3.254 0 0 0-.276-.286.958.958 0 0 0-.059-.049 2.871 2.871 0 0 0-.27-.21l-.055-.039a3.157 3.157 0 0 0-.343-.196c-.008-.003-.015-.009-.021-.013l-20.518-9.854L51.217.423a3.1 3.1 0 0 0-2.683 0l-20.517 9.854L7.5 20.13l-.021.012a3.266 3.266 0 0 0-.345.197l-.055.038a2.967 2.967 0 0 0-.27.21l-.059.05a3.081 3.081 0 0 0-.275.284l-.023.03c-.072.088-.14.182-.204.278-.018.034-.038.066-.058.099-.019.031-.04.061-.058.093-.032.058-.058.116-.085.175-.013.026-.027.051-.039.078-.053.12-.098.242-.134.365l-.017.065a2.98 2.98 0 0 0-.072.332l-.013.08a3.015 3.015 0 0 0-.028.401v50.596c0 1.126.611 2.164 1.596 2.71l19.928 11.051c.178.163.373.31.589.431L48.373 99.08l.004.002a2.84 2.84 0 0 0 .398.182 4.134 4.134 0 0 0 .377.117c.089.021.179.038.271.052l.091.014a3.066 3.066 0 0 0 .72 0l.092-.014a2.95 2.95 0 0 0 .649-.169l.059-.021c.115-.047.229-.1.338-.161l.005-.002 20.517-11.376a3.09 3.09 0 0 0 .588-.431l19.929-11.051a3.1 3.1 0 0 0 1.596-2.71V22.918c0-.135-.012-.27-.029-.405zM11.94 28.184l14.32 7.941v18.262l-14.32-7.941V28.184zm17.418-11.678l13.772 6.615-13.772 7.637-13.772-7.637 13.772-6.615zm41.034 0l13.772 6.615-13.772 7.637-13.772-7.637 13.772-6.615zM49.875 67.482l-14.129-7.835 14.129-7.835 14.128 7.835-14.128 7.835zm17.419-13.095l-14.32-7.941V28.184l14.32 7.941v18.262zm-20.517-7.942l-14.321 7.941V36.125l14.321-7.941v18.261zm-14.32 18.462l14.321 7.942V91.11l-14.321-7.94V64.907zm20.517 7.942l14.32-7.941V83.17l-14.32 7.94V72.849zM73.49 54.387V36.125l14.321-7.941v18.262L73.49 54.387zM49.875 6.652l13.361 6.417-13.361 6.417-13.361-6.417 13.361-6.417zM11.94 53.53l14.32 7.941V79.63l-14.32-7.941V53.53zm61.55 26.101V61.472l14.321-7.941V71.69L73.49 79.631z"></path></g><g id="SvgjsG428112" class="text" transform="translate(241.09615384980566, 95.14693643201497) scale(1)" light-content="false" fill="#262626"><path d="M-33.59 -41.98L-30.55 -47.66C-31.49 -48.53 -32.56 -49.3 -33.75 -49.99C-34.95 -50.68 -36.23 -51.27 -37.61 -51.76C-38.98 -52.26 -40.43 -52.63 -41.96 -52.88C-43.49 -53.14 -45.07 -53.26 -46.68 -53.26C-49.57 -53.26 -52.14 -52.82 -54.38 -51.94C-56.62 -51.06 -58.52 -49.89 -60.06 -48.42C-61.6 -46.95 -62.77 -45.27 -63.57 -43.39C-64.36 -41.51 -64.76 -39.58 -64.76 -37.61C-64.76 -35.15 -64.42 -33.08 -63.75 -31.4C-63.07 -29.73 -62.19 -28.33 -61.09 -27.21C-59.99 -26.09 -58.75 -25.18 -57.35 -24.5C-55.95 -23.81 -54.52 -23.23 -53.05 -22.76C-51.57 -22.29 -50.14 -21.86 -48.74 -21.48C-47.34 -21.09 -46.1 -20.65 -45 -20.14C-43.9 -19.63 -43.02 -19 -42.34 -18.22C-41.67 -17.45 -41.33 -16.45 -41.33 -15.22C-41.33 -13.1 -41.94 -11.55 -43.17 -10.58C-44.4 -9.6 -46.13 -9.11 -48.34 -9.11C-49.98 -9.11 -51.41 -9.34 -52.61 -9.8C-53.82 -10.26 -54.88 -10.76 -55.81 -11.32C-56.74 -11.87 -57.57 -12.38 -58.31 -12.84C-59.04 -13.29 -59.77 -13.52 -60.49 -13.52C-61.05 -13.52 -61.57 -13.39 -62.05 -13.13C-62.53 -12.86 -62.9 -12.51 -63.17 -12.08L-66.79 -6.36C-65.75 -5.33 -64.53 -4.39 -63.13 -3.54C-61.74 -2.7 -60.24 -1.97 -58.65 -1.36C-57.06 -0.74 -55.41 -0.27 -53.71 0.07C-52.01 0.41 -50.35 0.58 -48.71 0.58C-45.72 0.58 -43.05 0.13 -40.7 -0.78C-38.35 -1.68 -36.37 -2.92 -34.77 -4.5C-33.16 -6.08 -31.94 -7.93 -31.1 -10.05C-30.25 -12.17 -29.83 -14.45 -29.83 -16.89C-29.83 -19.08 -30.17 -20.95 -30.84 -22.51C-31.52 -24.06 -32.4 -25.38 -33.5 -26.47C-34.6 -27.55 -35.85 -28.44 -37.26 -29.14C-38.67 -29.84 -40.11 -30.45 -41.58 -30.97C-43.05 -31.49 -44.49 -31.96 -45.9 -32.38C-47.31 -32.8 -48.57 -33.27 -49.66 -33.77C-50.76 -34.28 -51.65 -34.88 -52.32 -35.58C-53 -36.28 -53.33 -37.16 -53.33 -38.22C-53.33 -39.88 -52.77 -41.2 -51.65 -42.18C-50.53 -43.16 -48.83 -43.64 -46.54 -43.64C-45.21 -43.64 -44.03 -43.47 -42.99 -43.12C-41.96 -42.77 -41.03 -42.38 -40.23 -41.94C-39.42 -41.51 -38.7 -41.12 -38.06 -40.77C-37.42 -40.42 -36.82 -40.24 -36.27 -40.24C-35.64 -40.24 -35.13 -40.39 -34.73 -40.68C-34.33 -40.97 -33.95 -41.4 -33.59 -41.98Z M28.24 -26.36C28.24 -30.14 27.58 -33.68 26.27 -36.95C24.96 -40.23 23.11 -43.08 20.72 -45.49C18.33 -47.9 15.46 -49.8 12.1 -51.18C8.73 -52.57 5 -53.26 0.9 -53.26C-3.19 -53.26 -6.93 -52.58 -10.31 -51.2C-13.68 -49.83 -16.57 -47.93 -18.97 -45.52C-21.36 -43.11 -23.22 -40.27 -24.53 -36.99C-25.85 -33.71 -26.5 -30.17 -26.5 -26.36C-26.5 -22.55 -25.85 -19.01 -24.53 -15.73C-23.22 -12.45 -21.36 -9.6 -18.97 -7.18C-16.57 -4.75 -13.68 -2.86 -10.31 -1.48C-6.93 -0.11 -3.19 0.58 0.9 0.58C2.06 0.58 3.19 0.52 4.28 0.4C5.38 0.28 6.46 0.11 7.52 -0.11L14.07 7.23C14.98 8.29 16.03 9 17.21 9.35C18.39 9.7 19.71 9.87 21.15 9.87L31.21 9.87L17.86 -4.7C19.5 -5.91 20.97 -7.29 22.26 -8.86C23.55 -10.43 24.63 -12.13 25.51 -13.96C26.39 -15.79 27.06 -17.75 27.53 -19.83C28.01 -21.92 28.24 -24.09 28.24 -26.36ZM15.73 -26.36C15.73 -23.73 15.39 -21.38 14.72 -19.29C14.04 -17.21 13.07 -15.44 11.81 -13.99C10.54 -12.55 8.99 -11.44 7.16 -10.68C5.33 -9.93 3.24 -9.55 0.9 -9.55C-1.46 -9.55 -3.56 -9.93 -5.41 -10.68C-7.25 -11.44 -8.8 -12.55 -10.07 -13.99C-11.34 -15.44 -12.31 -17.21 -12.98 -19.29C-13.66 -21.38 -13.99 -23.73 -13.99 -26.36C-13.99 -28.96 -13.66 -31.31 -12.98 -33.39C-12.31 -35.48 -11.34 -37.24 -10.07 -38.69C-8.8 -40.14 -7.25 -41.25 -5.41 -42.02C-3.56 -42.79 -1.46 -43.17 0.9 -43.17C3.24 -43.17 5.33 -42.79 7.16 -42.02C8.99 -41.25 10.54 -40.14 11.81 -38.69C13.07 -37.24 14.04 -35.48 14.72 -33.39C15.39 -31.31 15.73 -28.96 15.73 -26.36Z M46.32 -9.76L46.32 -52.68L34.1 -52.68L34.1 0L65.85 0L65.85 -9.76Z"></path></g><g id="SvgjsG428113" class="text" transform="translate(442.3081575317109, 94.27693643201498) scale(1)" light-content="false" fill="#262626"><path d="M-77.85 -51.82L-118.42 -51.82L-118.42 -45.92L-101.61 -45.92L-101.61 0L-94.59 0L-94.59 -45.92L-77.85 -45.92Z M-50.33 -5.57C-52.48 -5.57 -54.4 -5.94 -56.1 -6.67C-57.8 -7.41 -59.23 -8.43 -60.4 -9.73C-61.57 -11.03 -62.46 -12.58 -63.08 -14.39C-63.69 -16.2 -64 -18.19 -64 -20.36L-64 -51.82L-70.98 -51.82L-70.98 -20.32C-70.98 -17.33 -70.5 -14.56 -69.55 -12C-68.6 -9.45 -67.23 -7.24 -65.45 -5.37C-63.66 -3.5 -61.49 -2.04 -58.94 -0.98C-56.38 0.08 -53.52 0.61 -50.33 0.61C-47.15 0.61 -44.28 0.08 -41.73 -0.98C-39.17 -2.04 -37.01 -3.5 -35.24 -5.37C-33.47 -7.24 -32.1 -9.45 -31.15 -12C-30.2 -14.56 -29.72 -17.33 -29.72 -20.32L-29.72 -51.82L-36.7 -51.82L-36.7 -20.32C-36.7 -18.15 -37.01 -16.16 -37.62 -14.36C-38.24 -12.55 -39.13 -10.99 -40.3 -9.69C-41.47 -8.39 -42.9 -7.38 -44.58 -6.65C-46.27 -5.93 -48.19 -5.57 -50.33 -5.57Z M17.61 -51.82L-22.96 -51.82L-22.96 -45.92L-6.15 -45.92L-6.15 0L0.87 0L0.87 -45.92L17.61 -45.92Z M69.57 -25.89C69.57 -29.77 68.95 -33.33 67.73 -36.57C66.5 -39.82 64.76 -42.61 62.52 -44.96C60.28 -47.31 57.58 -49.14 54.44 -50.44C51.29 -51.74 47.81 -52.39 44.01 -52.39C40.2 -52.39 36.73 -51.74 33.59 -50.44C30.46 -49.14 27.77 -47.31 25.53 -44.96C23.29 -42.61 21.55 -39.82 20.32 -36.57C19.09 -33.33 18.48 -29.77 18.48 -25.89C18.48 -22.01 19.09 -18.45 20.32 -15.2C21.55 -11.96 23.29 -9.17 25.53 -6.83C27.77 -4.5 30.46 -2.68 33.59 -1.39C36.73 -0.1 40.2 0.54 44.01 0.54C47.81 0.54 51.29 -0.1 54.44 -1.39C57.58 -2.68 60.28 -4.5 62.52 -6.83C64.76 -9.17 66.5 -11.96 67.73 -15.2C68.95 -18.45 69.57 -22.01 69.57 -25.89ZM62.37 -25.89C62.37 -22.71 61.94 -19.86 61.07 -17.34C60.2 -14.82 58.98 -12.69 57.38 -10.94C55.79 -9.19 53.86 -7.85 51.6 -6.92C49.33 -6 46.8 -5.53 44.01 -5.53C41.23 -5.53 38.71 -6 36.45 -6.92C34.18 -7.85 32.25 -9.19 30.64 -10.94C29.04 -12.69 27.81 -14.82 26.94 -17.34C26.07 -19.86 25.64 -22.71 25.64 -25.89C25.64 -29.07 26.07 -31.93 26.94 -34.46C27.81 -36.99 29.04 -39.13 30.64 -40.88C32.25 -42.63 34.18 -43.97 36.45 -44.91C38.71 -45.85 41.23 -46.32 44.01 -46.32C46.8 -46.32 49.33 -45.85 51.6 -44.91C53.86 -43.97 55.79 -42.63 57.38 -40.88C58.98 -39.13 60.2 -36.99 61.07 -34.46C61.94 -31.93 62.37 -29.07 62.37 -25.89Z M86.85 -21.62L92.17 -21.62C93.13 -21.62 93.86 -21.5 94.34 -21.24C94.82 -20.99 95.27 -20.57 95.68 -20L109.13 -1.48C109.73 -0.49 110.67 0 111.95 0L118.17 0L103.05 -20.57C102.38 -21.54 101.61 -22.27 100.74 -22.78C102.74 -23.24 104.53 -23.91 106.11 -24.8C107.69 -25.7 109.03 -26.78 110.12 -28.04C111.22 -29.31 112.06 -30.74 112.63 -32.33C113.21 -33.92 113.5 -35.63 113.5 -37.46C113.5 -39.65 113.13 -41.64 112.38 -43.41C111.63 -45.18 110.48 -46.69 108.93 -47.95C107.37 -49.2 105.4 -50.16 103.02 -50.82C100.63 -51.48 97.8 -51.82 94.52 -51.82L79.87 -51.82L79.87 0L86.85 0ZM86.85 -26.72L86.85 -46.28L94.52 -46.28C98.54 -46.28 101.58 -45.5 103.61 -43.93C105.65 -42.37 106.67 -40.04 106.67 -36.95C106.67 -35.44 106.4 -34.05 105.87 -32.8C105.34 -31.54 104.55 -30.46 103.5 -29.56C102.46 -28.66 101.15 -27.96 99.6 -27.46C98.04 -26.97 96.24 -26.72 94.19 -26.72Z"></path></g></g></svg>