<svg xmlns="http://www.w3.org/2000/svg" version="1.1" xlink="http://www.w3.org/1999/xlink" xmlns:svgjs="http://svgjs.com/svgjs" width="100%" height="100%" preserveAspectRatio="xMidYMid meet" viewBox="0 0 82.44691467285156 146.996826171875" overflow="visible"><defs id="SvgjsDefs428118"></defs><g id="SvgjsG428119" transform="scale(0.5159705159705159)" opacity="1"><g id="SvgjsG428120" class="nTpPNCJhy" transform="translate(3.6989447579560135, 0) scale(1.5163998230353277)" light-content="false" non-strokable="false" fill="#fa4e33"><rect width="100" height="100" rx="10"></rect></g><g id="SvgjsG428121" class="I8kErrMFBS" transform="translate(28.973794618842277, 24.452970429400867) scale(1.0275283199533132)" light-content="true" non-strokable="false" fill="#ffffff"><path d="M93.978 22.513l-.012-.075a3.072 3.072 0 0 0-.073-.34l-.016-.058a3.126 3.126 0 0 0-.135-.368l-.036-.072c-.028-.06-.056-.12-.088-.179-.019-.033-.04-.063-.06-.095a3.179 3.179 0 0 0-.267-.38l-.018-.023a3.254 3.254 0 0 0-.276-.286.958.958 0 0 0-.059-.049 2.871 2.871 0 0 0-.27-.21l-.055-.039a3.157 3.157 0 0 0-.343-.196c-.008-.003-.015-.009-.021-.013l-20.518-9.854L51.217.423a3.1 3.1 0 0 0-2.683 0l-20.517 9.854L7.5 20.13l-.021.012a3.266 3.266 0 0 0-.345.197l-.055.038a2.967 2.967 0 0 0-.27.21l-.059.05a3.081 3.081 0 0 0-.275.284l-.023.03c-.072.088-.14.182-.204.278-.018.034-.038.066-.058.099-.019.031-.04.061-.058.093-.032.058-.058.116-.085.175-.013.026-.027.051-.039.078-.053.12-.098.242-.134.365l-.017.065a2.98 2.98 0 0 0-.072.332l-.013.08a3.015 3.015 0 0 0-.028.401v50.596c0 1.126.611 2.164 1.596 2.71l19.928 11.051c.178.163.373.31.589.431L48.373 99.08l.004.002a2.84 2.84 0 0 0 .398.182 4.134 4.134 0 0 0 .377.117c.089.021.179.038.271.052l.091.014a3.066 3.066 0 0 0 .72 0l.092-.014a2.95 2.95 0 0 0 .649-.169l.059-.021c.115-.047.229-.1.338-.161l.005-.002 20.517-11.376a3.09 3.09 0 0 0 .588-.431l19.929-11.051a3.1 3.1 0 0 0 1.596-2.71V22.918c0-.135-.012-.27-.029-.405zM11.94 28.184l14.32 7.941v18.262l-14.32-7.941V28.184zm17.418-11.678l13.772 6.615-13.772 7.637-13.772-7.637 13.772-6.615zm41.034 0l13.772 6.615-13.772 7.637-13.772-7.637 13.772-6.615zM49.875 67.482l-14.129-7.835 14.129-7.835 14.128 7.835-14.128 7.835zm17.419-13.095l-14.32-7.941V28.184l14.32 7.941v18.262zm-20.517-7.942l-14.321 7.941V36.125l14.321-7.941v18.261zm-14.32 18.462l14.321 7.942V91.11l-14.321-7.94V64.907zm20.517 7.942l14.32-7.941V83.17l-14.32 7.94V72.849zM73.49 54.387V36.125l14.321-7.941v18.262L73.49 54.387zM49.875 6.652l13.361 6.417-13.361 6.417-13.361-6.417 13.361-6.417zM11.94 53.53l14.32 7.941V79.63l-14.32-7.941V53.53zm61.55 26.101V61.472l14.321-7.941V71.69L73.49 79.631z"></path></g><g id="SvgjsG428122" class="text" transform="translate(80.46, 228.92240456566702) scale(1)" light-content="false" fill="#262626"><path d="M-40.47 -50.58L-36.81 -57.42C-37.94 -58.46 -39.23 -59.4 -40.67 -60.23C-42.1 -61.05 -43.65 -61.76 -45.31 -62.36C-46.96 -62.96 -48.71 -63.41 -50.55 -63.71C-52.4 -64.02 -54.29 -64.17 -56.24 -64.17C-59.72 -64.17 -62.82 -63.64 -65.52 -62.58C-68.22 -61.52 -70.5 -60.1 -72.36 -58.33C-74.22 -56.56 -75.62 -54.54 -76.58 -52.28C-77.54 -50.01 -78.02 -47.69 -78.02 -45.31C-78.02 -42.34 -77.61 -39.85 -76.8 -37.83C-75.99 -35.82 -74.92 -34.13 -73.6 -32.78C-72.28 -31.43 -70.77 -30.34 -69.09 -29.51C-67.41 -28.69 -65.68 -27.99 -63.91 -27.42C-62.13 -26.86 -60.41 -26.34 -58.72 -25.88C-57.04 -25.41 -55.54 -24.87 -54.21 -24.26C-52.89 -23.65 -51.83 -22.88 -51.01 -21.96C-50.2 -21.03 -49.79 -19.82 -49.79 -18.34C-49.79 -15.78 -50.53 -13.92 -52.01 -12.74C-53.49 -11.57 -55.57 -10.98 -58.24 -10.98C-60.22 -10.98 -61.93 -11.25 -63.38 -11.81C-64.84 -12.36 -66.12 -12.97 -67.24 -13.64C-68.36 -14.3 -69.36 -14.91 -70.24 -15.46C-71.13 -16.02 -72.01 -16.29 -72.88 -16.29C-73.55 -16.29 -74.17 -16.13 -74.75 -15.81C-75.33 -15.49 -75.78 -15.07 -76.1 -14.55L-80.46 -7.67C-79.21 -6.42 -77.74 -5.29 -76.06 -4.27C-74.38 -3.25 -72.58 -2.37 -70.66 -1.63C-68.74 -0.89 -66.76 -0.32 -64.71 0.09C-62.66 0.49 -60.65 0.7 -58.68 0.7C-55.08 0.7 -51.86 0.15 -49.03 -0.94C-46.2 -2.03 -43.82 -3.52 -41.89 -5.42C-39.95 -7.33 -38.48 -9.55 -37.46 -12.11C-36.45 -14.67 -35.94 -17.41 -35.94 -20.34C-35.94 -22.99 -36.35 -25.24 -37.16 -27.12C-37.97 -28.99 -39.04 -30.58 -40.36 -31.89C-41.68 -33.19 -43.19 -34.27 -44.89 -35.11C-46.59 -35.95 -48.33 -36.69 -50.1 -37.31C-51.87 -37.94 -53.6 -38.5 -55.3 -39.01C-57 -39.52 -58.51 -40.08 -59.83 -40.69C-61.15 -41.3 -62.22 -42.02 -63.04 -42.87C-63.85 -43.71 -64.25 -44.77 -64.25 -46.05C-64.25 -48.05 -63.58 -49.64 -62.23 -50.82C-60.88 -51.99 -58.82 -52.58 -56.07 -52.58C-54.47 -52.58 -53.04 -52.37 -51.8 -51.95C-50.55 -51.53 -49.44 -51.06 -48.46 -50.53C-47.49 -50.01 -46.62 -49.54 -45.85 -49.12C-45.08 -48.7 -44.36 -48.49 -43.69 -48.49C-42.94 -48.49 -42.32 -48.66 -41.84 -49.01C-41.36 -49.36 -40.91 -49.88 -40.47 -50.58Z M34.02 -31.76C34.02 -36.32 33.23 -40.57 31.65 -44.52C30.07 -48.47 27.84 -51.9 24.96 -54.8C22.09 -57.71 18.62 -59.99 14.57 -61.66C10.52 -63.33 6.03 -64.17 1.09 -64.17C-3.85 -64.17 -8.35 -63.34 -12.42 -61.68C-16.48 -60.03 -19.96 -57.75 -22.85 -54.85C-25.74 -51.94 -27.97 -48.51 -29.56 -44.56C-31.14 -40.61 -31.93 -36.35 -31.93 -31.76C-31.93 -27.17 -31.14 -22.9 -29.56 -18.95C-27.97 -15 -25.74 -11.57 -22.85 -8.65C-19.96 -5.73 -16.48 -3.44 -12.42 -1.79C-8.35 -0.13 -3.85 0.7 1.09 0.7C2.48 0.7 3.84 0.62 5.16 0.48C6.48 0.33 7.78 0.13 9.06 -0.13L16.95 8.71C18.05 9.99 19.31 10.84 20.74 11.26C22.16 11.68 23.74 11.89 25.48 11.89L37.59 11.89L21.52 -5.66C23.49 -7.12 25.26 -8.79 26.81 -10.67C28.37 -12.56 29.67 -14.61 30.73 -16.82C31.79 -19.02 32.61 -21.38 33.17 -23.89C33.74 -26.41 34.02 -29.03 34.02 -31.76ZM18.95 -31.76C18.95 -28.59 18.54 -25.75 17.73 -23.24C16.92 -20.73 15.75 -18.6 14.22 -16.86C12.7 -15.12 10.83 -13.79 8.63 -12.87C6.42 -11.96 3.91 -11.5 1.09 -11.5C-1.76 -11.5 -4.29 -11.96 -6.51 -12.87C-8.73 -13.79 -10.61 -15.12 -12.13 -16.86C-13.66 -18.6 -14.83 -20.73 -15.64 -23.24C-16.45 -25.75 -16.86 -28.59 -16.86 -31.76C-16.86 -34.89 -16.45 -37.72 -15.64 -40.23C-14.83 -42.74 -13.66 -44.87 -12.13 -46.61C-10.61 -48.35 -8.73 -49.69 -6.51 -50.62C-4.29 -51.55 -1.76 -52.01 1.09 -52.01C3.91 -52.01 6.42 -51.55 8.63 -50.62C10.83 -49.69 12.7 -48.35 14.22 -46.61C15.75 -44.87 16.92 -42.74 17.73 -40.23C18.54 -37.72 18.95 -34.89 18.95 -31.76Z M55.8 -11.76L55.8 -63.47L41.08 -63.47L41.08 0L79.33 0L79.33 -11.76Z"></path></g><g id="SvgjsG428123" class="text" transform="translate(79.19395102859511, 284.5038959353557) scale(1)" light-content="false" fill="#262626"><path d="M-50.02 -33.29L-76.09 -33.29L-76.09 -29.51L-65.29 -29.51L-65.29 0L-60.78 0L-60.78 -29.51L-50.02 -29.51Z M-32.34 -3.58C-33.72 -3.58 -34.95 -3.81 -36.05 -4.29C-37.14 -4.76 -38.06 -5.41 -38.81 -6.25C-39.56 -7.09 -40.14 -8.09 -40.53 -9.25C-40.93 -10.41 -41.12 -11.69 -41.12 -13.08L-41.12 -33.29L-45.61 -33.29L-45.61 -13.06C-45.61 -11.14 -45.3 -9.36 -44.69 -7.71C-44.08 -6.07 -43.2 -4.65 -42.05 -3.45C-40.91 -2.25 -39.51 -1.31 -37.87 -0.63C-36.23 0.05 -34.39 0.39 -32.34 0.39C-30.3 0.39 -28.45 0.05 -26.81 -0.63C-25.17 -1.31 -23.78 -2.25 -22.64 -3.45C-21.5 -4.65 -20.63 -6.07 -20.02 -7.71C-19.4 -9.36 -19.1 -11.14 -19.1 -13.06L-19.1 -33.29L-23.58 -33.29L-23.58 -13.06C-23.58 -11.66 -23.78 -10.39 -24.17 -9.22C-24.57 -8.06 -25.14 -7.06 -25.89 -6.23C-26.64 -5.39 -27.56 -4.74 -28.65 -4.27C-29.73 -3.81 -30.96 -3.58 -32.34 -3.58Z M11.31 -33.29L-14.75 -33.29L-14.75 -29.51L-3.95 -29.51L-3.95 0L0.56 0L0.56 -29.51L11.31 -29.51Z M44.7 -16.64C44.7 -19.13 44.31 -21.42 43.52 -23.5C42.73 -25.58 41.61 -27.38 40.17 -28.89C38.73 -30.4 37 -31.57 34.98 -32.41C32.96 -33.25 30.72 -33.67 28.28 -33.67C25.83 -33.67 23.6 -33.25 21.58 -32.41C19.57 -31.57 17.84 -30.4 16.4 -28.89C14.96 -27.38 13.85 -25.58 13.06 -23.5C12.27 -21.42 11.87 -19.13 11.87 -16.64C11.87 -14.14 12.27 -11.85 13.06 -9.77C13.85 -7.69 14.96 -5.89 16.4 -4.39C17.84 -2.89 19.57 -1.72 21.58 -0.89C23.6 -0.07 25.83 0.35 28.28 0.35C30.72 0.35 32.96 -0.07 34.98 -0.89C37 -1.72 38.73 -2.89 40.17 -4.39C41.61 -5.89 42.73 -7.69 43.52 -9.77C44.31 -11.85 44.7 -14.14 44.7 -16.64ZM40.08 -16.64C40.08 -14.59 39.8 -12.76 39.24 -11.14C38.68 -9.52 37.89 -8.15 36.87 -7.03C35.85 -5.91 34.61 -5.05 33.15 -4.45C31.7 -3.85 30.07 -3.55 28.28 -3.55C26.49 -3.55 24.88 -3.85 23.42 -4.45C21.96 -5.05 20.72 -5.91 19.69 -7.03C18.66 -8.15 17.87 -9.52 17.31 -11.14C16.75 -12.76 16.47 -14.59 16.47 -16.64C16.47 -18.68 16.75 -20.52 17.31 -22.14C17.87 -23.77 18.66 -25.14 19.69 -26.27C20.72 -27.39 21.96 -28.25 23.42 -28.86C24.88 -29.46 26.49 -29.76 28.28 -29.76C30.07 -29.76 31.7 -29.46 33.15 -28.86C34.61 -28.25 35.85 -27.39 36.87 -26.27C37.89 -25.14 38.68 -23.77 39.24 -22.14C39.8 -20.52 40.08 -18.68 40.08 -16.64Z M55.81 -13.89L59.22 -13.89C59.84 -13.89 60.31 -13.81 60.62 -13.65C60.93 -13.49 61.21 -13.22 61.48 -12.85L70.12 -0.95C70.51 -0.32 71.11 0 71.93 0L75.93 0L66.22 -13.22C65.78 -13.84 65.29 -14.31 64.73 -14.64C66.01 -14.93 67.16 -15.37 68.18 -15.94C69.19 -16.51 70.05 -17.2 70.76 -18.02C71.46 -18.83 72 -19.75 72.37 -20.77C72.74 -21.79 72.93 -22.89 72.93 -24.07C72.93 -25.48 72.69 -26.75 72.21 -27.89C71.73 -29.03 70.99 -30 69.99 -30.81C68.99 -31.61 67.73 -32.23 66.19 -32.65C64.66 -33.08 62.84 -33.29 60.73 -33.29L51.32 -33.29L51.32 0L55.81 0ZM55.81 -17.17L55.81 -29.74L60.73 -29.74C63.32 -29.74 65.27 -29.24 66.58 -28.23C67.88 -27.22 68.54 -25.73 68.54 -23.74C68.54 -22.77 68.37 -21.88 68.03 -21.07C67.69 -20.27 67.18 -19.57 66.51 -18.99C65.83 -18.41 65 -17.96 64 -17.65C63 -17.33 61.84 -17.17 60.52 -17.17Z"></path></g></g></svg>